<svg xmlns="http://www.w3.org/2000/svg" style="width: 0; height: 0; position: absolute;" viewBox="0 0 1 1">
    <defs>
        <symbol id="execution_icon" viewBox="0 0 25 25">
            <circle cx="5" cy="20" r="2.7" fill="none" stroke="currentColor" stroke-width="1.6"/>
            <circle cx="20" cy="5" r="2.9" fill="none" stroke="currentColor" stroke-width="1.2"/>
            <path d="M 7.5,20 H 17 A 3.75,3.75 0 1 0 17,12.5 H 8 A 3.75,3.75 0 1 1 8,5 H 17.5" fill="none" stroke="currentColor" stroke-width="4"/>
        </symbol>
        <symbol id="event_icon" viewBox="0 0 25 25">
            <mask id="event_icon_mask" maskUnits="objectBoundingBox">
                <rect x="0" y="0" width="25" height="25" fill="white"/>
                <path d="M 10,4 Q 12,7.5 18,7.5 H -100 z" fill="black"/>
                <path d="M 4,10 Q 7.5,12 7.5,18 V -100 z" fill="black"/>
                <circle cx="20" cy="20" r="4.5" fill="black"/>
            </mask>
            <rect x="6.5" y="6.5" width="14.5" height="14.5" rx="3" ry="3" fill="none" stroke="currentColor" stroke-width="2" mask="url(#event_icon_mask)"/>
            <path d="M 8,1 Q 8,8 15,8 Q 8,8 8,15 Q 8,8 1,8 Q 8,8 8,1 z" fill="currentColor"/>
            <circle cx="20" cy="20" r="3.5" fill="currentColor"/>
        </symbol>
        <symbol id="flow_icon" viewBox="0 0 25 25">
            <mask id="flow_icon_mask" maskUnits="objectBoundingBox">
                <rect x="0" y="0" width="25" height="25" fill="white"/>
                <circle cx="5.5" cy="12.5" r="4.5" fill="black"/>
                <circle cx="20.5" cy="4.5" r="3.5" fill="black"/>
                <circle cx="20.5" cy="12.5" r="3.5" fill="black"/>
                <circle cx="20.5" cy="20.5" r="3.5" fill="black"/>
            </mask>
            <circle cx="5.5" cy="12.5" r="4" fill="currentColor"/>
            <circle cx="20.5" cy="4.5" r="3" fill="currentColor"/>
            <circle cx="20.5" cy="12.5" r="3" fill="currentColor"/>
            <circle cx="20.5" cy="20.5" r="3" fill="currentColor"/>
            <rect /> 
            <!-- svg has this weird quirk where it can't mask horizontal/vertical line, so we use rect instead. -->
            <rect x="5" y="11.5" width="16" height="2" fill="currentColor" mask="url(#flow_icon_mask)"/>
            <path d="M 20.5,4.5 H 16.5 A 3,3 0 0 0 13.5,7.5 V 17.5 A 3,3 0 0 0 16.5,20.5 H 20.5" fill="none" stroke="currentColor" stroke-width="2" mask="url(#flow_icon_mask)"/>
        </symbol>
        <symbol id="query_icon" viewBox="0 0 25 25">
            <mask id="query_icon_mask" maskUnits="objectBoundingBox">
                <rect x="0" y="0" width="25" height="25" fill="white"/>
                <circle cx="12.5" cy="14" r="6.5" fill="black"/>
            </mask>
            <circle cx="4" cy="4" r="2.5" fill="currentColor"/>
            <circle cx="21" cy="4" r="2.5" fill="currentColor"/>
            <line x1="4" y1="4" x2="21" y2="4" stroke="currentColor" stroke-width="3"/>
            <!-- svg has this weird quirk where it can't mask horizontal/vertical line, so we use rect instead. -->
            <rect x="11" y="4" width="3" height="19.5" fill="currentColor" mask="url(#query_icon_mask)"/>
            <circle cx="12.5" cy="14" r="5" fill="none" stroke="currentColor" stroke-width="2"/>
            <line x1="16.5" y1="18" x2="19.5" y2="21" stroke="currentColor" stroke-width="3" stroke-linecap="round"/>
        </symbol>
        <symbol id="operation_icon" viewBox="0 0 25 25">
            <mask id="operation_icon_mask" maskUnits="objectBoundingBox">
                <rect x="0" y="0" width="25" height="25" fill="white"/>
                <rect x="10" y="3.5" width="11.5" height="18" rx="3" ry="3" fill="black"/>
                <rect x="5" y="3.5" width="7.5" height="18" fill="white"/>
                <line x1="4" y1="7" x2="10" y2="7" stroke="black" stroke-width="2" stroke-linecap="round"/>
                <line x1="4" y1="16" x2="10" y2="16" stroke="black" stroke-width="2" stroke-linecap="round"/>
                <line x1="7" y1="13" x2="7" y2="19" stroke="black" stroke-width="2" stroke-linecap="round"/>
                <line x1="14.5" y1="11" x2="19.5" y2="11" stroke="white" stroke-width="2" stroke-linecap="round"/>
                <line x1="14.5" y1="14" x2="19.5" y2="14" stroke="white" stroke-width="2" stroke-linecap="round"/>
            </mask>
            <rect x="1.5" y="1.5" width="22" height="22" rx="5" ry="5" fill="currentColor" mask="url(#operation_icon_mask)"/>
        </symbol>
        <symbol id="input_icon" viewBox="0 0 25 25">
            <circle cx="17.5" cy="12.5" r="2.5" fill="white"/>
            <circle cx="17.5" cy="12.5" r="5" fill="none" stroke="white" stroke-width="2"/>
            <line x1="3" y1="12.5" x2="12" y2="12.5" stroke="#74b3d9" stroke-width="3" stroke-linecap="round"/>
            <path d="M 14,12.5 L 10,9 V 16 z" fill="#74b3d9" stroke="#74b3d9" stroke-width="1" stroke-linejoin="round"/>
        </symbol>
        <symbol id="output_icon" viewBox="0 0 25 25">
            <circle cx="7.5" cy="12.5" r="2.5" fill="white"/>
            <circle cx="7.5" cy="12.5" r="5" fill="none" stroke="white" stroke-width="2"/>
            <line x1="12" y1="12.5" x2="20.5" y2="12.5" stroke="#d67dbc" stroke-width="3" stroke-linecap="round"/>
            <path d="M 23,12.5 L 19,9 V 16 z" fill="#d67dbc" stroke="#d67dbc" stroke-width="1" stroke-linejoin="round"/>
        </symbol>
    </defs>

    <!-- <rect x="0" y="0" width="1" height="1" fill="#444"/> -->
    <!-- <use x="0" y="0" width="1" height="1" href="#operation_icon"/> -->
</svg>